<svg xmlns="http://www.w3.org/2000/svg" width="100" height="51" fill="none"><path fill="#394149" d="M2.585 29.517h2.833v13.89H2.585zm4.476 9.131a5.043 5.043 0 1 1 5.043 5.033 4.984 4.984 0 0 1-5.043-5.033m7.233 0a2.19 2.19 0 1 0-2.19 2.247 2.133 2.133 0 0 0 2.19-2.247" class="cneutral"/><path fill="#394149" d="M28.535 33.889v9.046c0 3.201-2.503 4.552-5.034 4.552a4.86 4.86 0 0 1-4.504-2.305l2.436-1.407a2.17 2.17 0 0 0 2.125 1.2 1.887 1.887 0 0 0 2.19-2.04v-.878a3.36 3.36 0 0 1-2.775 1.237 4.835 4.835 0 0 1 0-9.67 3.39 3.39 0 0 1 2.776 1.237v-.944zm-2.786 4.57a2.304 2.304 0 1 0-2.304 2.21 2.153 2.153 0 0 0 2.304-2.21m4.419.189a5.043 5.043 0 1 1 5.043 5.033 4.985 4.985 0 0 1-5.043-5.033m7.234 0a2.191 2.191 0 1 0-2.191 2.247 2.134 2.134 0 0 0 2.172-2.247zm4.164-7.309a1.719 1.719 0 1 1 1.719 1.719 1.73 1.73 0 0 1-1.719-1.719m.293 2.55h2.833v9.518h-2.833zm15.184 4.759a4.78 4.78 0 0 1-4.542 5.033 3.62 3.62 0 0 1-2.833-1.161v4.721h-2.833V33.89h2.833v.897a3.62 3.62 0 0 1 2.833-1.162 4.777 4.777 0 0 1 4.542 5.024Zm-2.833 0a2.266 2.266 0 1 0-2.323 2.323 2.172 2.172 0 0 0 2.304-2.323h.02Zm11.653 1.907c0 2.191-1.889 3.126-3.966 3.126a4.17 4.17 0 0 1-4.089-2.266l2.474-1.407a1.57 1.57 0 0 0 1.615 1.123c.69 0 1.03-.217 1.03-.595 0-1.048-4.722-.49-4.722-3.777 0-2.077 1.756-3.125 3.777-3.125a4.18 4.18 0 0 1 3.72 2.04l-2.483 1.303a1.41 1.41 0 0 0-1.284-.841c-.491 0-.794.189-.794.538.038 1.086 4.722.36 4.722 3.881m10.425-6.666v9.518h-2.833v-.887a3.26 3.26 0 0 1-2.72 1.161c-1.888 0-3.56-1.37-3.56-3.947v-5.845h2.833v5.43a1.568 1.568 0 0 0 1.71 1.727c1.038 0 1.766-.604 1.766-1.954v-5.203zm16.374 3.682v5.836H89.83v-5.59c0-.944-.462-1.568-1.369-1.568-.906 0-1.492.67-1.492 1.794v5.364h-2.833v-5.59c0-.944-.453-1.568-1.37-1.568-.915 0-1.482.67-1.482 1.794v5.364h-2.832V33.89h2.832v.878a2.93 2.93 0 0 1 2.55-1.143 2.83 2.83 0 0 1 2.493 1.256 3.14 3.14 0 0 1 2.757-1.256c2.153 0 3.58 1.568 3.58 3.947Zm2.418-3.739a2.115 2.115 0 1 0 0-4.23 2.115 2.115 0 0 0 0 4.23" class="cneutral"/><path fill="#394149" d="M34.644 22.311c5.471 0 9.906-4.434 9.906-9.905S40.115 2.5 34.644 2.5c-5.47 0-9.905 4.435-9.905 9.906 0 5.47 4.434 9.905 9.905 9.905" class="ccompli1"/><path fill="#394149" d="M56.788 22.311c5.471 0 9.906-4.434 9.906-9.905S62.259 2.5 56.788 2.5c-5.47 0-9.906 4.435-9.906 9.906 0 5.47 4.435 9.905 9.906 9.905" class="ccompli2"/><path fill="#394149" d="M22.406 2.5H2.604v19.802h19.802z" class="ccustom"/></svg>